<?xml version="1.0" encoding="UTF-8"?>
<svg width="44px" height="44px" viewBox="0 0 44 44" version="1.1" xmlns="http://www.w3.org/2000/svg" xmlns:xlink="http://www.w3.org/1999/xlink">
    <!-- Generator: Sketch 64 (93537) - https://sketch.com -->
    <title>清理小广告</title>
    <desc>Created with Sketch.</desc>
    <g id="创文驾驶舱&amp;移动端" stroke="none" stroke-width="1" fill="none" fill-rule="evenodd">
        <g id="督办事件" transform="translate(-1126.000000, -937.000000)" fill-rule="nonzero">
            <g id="编组-8备份-8" transform="translate(1126.000000, 931.000000)">
                <g id="遛狗服务" transform="translate(0.000000, 6.000000)" fill="#FFDFAF">
                    <path d="M22.0000256,44.0000572 L22.0000246,44.0000572 C9.84973706,44.0000572 -9.61650336e-07,34.1503132 -9.61650336e-07,22.0000256 C-9.61650336e-07,9.84973802 9.84973706,-2.13162821e-14 22.0000246,-2.13162821e-14 C34.1503122,-2.13162821e-14 44.0000502,9.84973802 44.0000502,22.0000256 L44.0000502,22.0001176 C43.9861432,34.1446473 34.1444684,43.9862642 21.9999386,44.0000572 L22.0000256,44.0000572 Z M22.0000256,2.09522361 L22.0000247,2.09522361 C11.0069299,2.09522361 2.09524376,11.0069308 2.09524376,22.0000256 C2.09524376,32.9931204 11.0069299,41.9048066 22.0000247,41.9048066 C32.9931196,41.9048066 41.9048063,32.9931204 41.9048063,22.0000256 L41.9048063,22.0006061 C41.8928093,11.0125816 32.9886085,2.1078994 22.000584,2.09522361 L22.0000256,2.09522361 Z" id="形状"></path>
                </g>
                <path d="M30.3089591,36.0846143 L30.3089591,36.0846143 C30.5125632,35.9310839 30.7882719,35.9922701 30.9247717,36.2212772 C31.0612715,36.4502842 31.0068724,36.7603922 30.8032684,36.9139226 C30.7996893,36.9166214 30.7960754,36.9192615 30.792428,36.921842 L28.2152444,38.8020762 L26.6849211,39.9186271 L26.6849211,39.9186271 C26.4804527,40.0692046 26.2061721,40.0048355 26.0722977,39.774856 C26.0052266,39.6596358 25.9835976,39.5183079 26.0125564,39.3844959 L26.0125564,39.384496 C26.0383277,39.2592085 26.1062726,39.1500344 26.2021126,39.0799151 L30.3089486,36.0838772 L30.3089591,36.0846143 Z M29.797416,33.9194899 L25.6866074,36.9186949 L25.6866074,36.9186949 C25.4818651,37.0693008 25.2073514,37.0046911 25.0734637,36.7743837 C25.0728963,36.7734077 25.072332,36.7724294 25.0717707,36.7714489 L25.0717706,36.7714489 C24.9380986,36.5400035 24.9965313,36.2304843 25.2022853,36.0801209 C25.202414,36.0800269 25.2025428,36.0799329 25.2026716,36.079839 L29.3134802,33.0806341 L29.3134802,33.0806341 C29.5194093,32.9303114 29.7946822,32.9962364 29.9283168,33.2278801 C30.0619527,33.4595231 30.0033458,33.7691687 29.797416,33.9194899 L29.797416,33.9194899 Z M21.3553115,32.2173911 L21.3553115,37 L20.0399142,31.6987764 L20.0399141,31.6987763 C19.8509586,30.9344402 20.3509727,30.1694923 21.1575082,29.9890221 L29.9195244,28.0383709 L29.9195243,28.038371 C30.3070227,27.9510341 30.7153022,28.014166 31.0533664,28.2136951 C31.3938716,28.4144487 31.6326506,28.7276239 31.7244872,29.0970093 L32,30.2085129 L23.4760548,30.2085129 L23.4760548,30.2085129 C22.3051904,30.2081433 21.3557005,31.1069462 21.3553141,32.2160487 C21.3553139,32.2164949 21.3553139,32.2169411 21.3553141,32.2173873 L21.3553115,32.2173911 Z M32.7297089,30.4318127 L32.3692467,28.8819247 L32.3692468,28.8819249 C32.225177,28.2516649 31.8377656,27.7059393 31.293417,27.3664551 L31.2934168,27.366455 C30.7509267,27.0243359 30.0956558,26.9160518 29.4737481,27.0657516 L20.8580745,29.1144698 L20.8580743,29.1144698 C19.563337,29.423882 18.7607064,30.7353075 19.0640999,32.0456269 L20.6031799,38.669546 L20.6031799,38.669546 C20.7477544,39.2994054 21.1353922,39.8445916 21.6797043,40.1836023 L21.7269324,40.2110029 L21.7269324,40.211003 C22.1218052,40.7100239 22.719561,41.0003441 23.3514385,41 L31.91571,41 L31.9157099,41 C33.0668318,41 34,40.0560183 34,38.8915576 L34,32.3737199 L34,32.3735578 C34,31.5268544 33.4994659,30.7622303 32.7288596,30.4317308 L32.7297089,30.4318127 Z" id="形状" fill="#FFDFAF"></path>
                <g id="清理" transform="translate(9.000000, 14.000000)" fill="#000000">
                    <path d="M16.5756992,20.9998998 L14.8551972,20.9998998 L14.8551972,20.9998998 C14.6398076,21.00077 14.4644945,20.8268686 14.4636244,20.61148 C14.4634831,20.5765015 14.4680481,20.5416629 14.4771968,20.5079017 C14.4771968,20.4921517 14.4771968,20.4921517 14.4944468,20.4756519 C14.6144468,20.0481539 14.0136957,19.8029051 13.7729456,20.1794025 C13.5824454,20.4584012 13.427946,20.6894009 13.3251952,20.8363994 L13.3251952,20.8363994 C13.249212,20.9407653 13.1272781,21.0017319 12.9981957,20.9998987 L11.5019446,20.9998987 L11.5019446,20.9998987 C11.2865551,21.0007689 11.111242,20.8268675 11.1103719,20.611479 C11.1102305,20.5765004 11.1147956,20.5416618 11.1239443,20.5079006 C11.1239443,20.4921506 11.1239443,20.4921506 11.1411943,20.4756508 C11.2611943,20.0481528 10.6596939,19.802904 10.4189438,20.1794015 C10.2291937,20.4584001 10.0754428,20.6893998 9.97194271,20.8363983 L9.97194271,20.8363983 C9.89611326,20.9405465 9.77451209,21.0014865 9.64569247,20.9998976 L8.16594067,20.9998976 L8.16594067,20.9998976 C7.95055113,21.0007678 7.77523799,20.8268664 7.77436787,20.6114779 C7.77422656,20.5764993 7.77879163,20.5416607 7.78794028,20.5078995 C7.78794028,20.4921495 7.78794028,20.4921495 7.80444031,20.4756497 C7.92444032,20.0481517 7.32293996,19.8029029 7.08218979,20.1794004 C6.89318965,20.458399 6.73868881,20.6893987 6.63518873,20.8363972 L6.63518873,20.8363972 C6.55935928,20.9405454 6.43775812,21.0014854 6.3089385,20.9998965 L5.2934385,20.9998965 L5.29343849,20.9998965 C5.07804896,21.0007667 4.90273582,20.8268653 4.9018657,20.6114768 C4.90172439,20.5764982 4.90628946,20.5416596 4.91543811,20.5078984 C4.91543811,20.4921484 4.91543811,20.4921484 4.93193811,20.4756486 C5.05193813,20.0481506 4.45043777,19.8029018 4.20968759,20.1793993 C4.02068746,20.4583979 3.86543734,20.6893976 3.76268654,20.8363961 L3.76268653,20.8363962 C3.68670327,20.940762 3.56476944,21.0017286 3.43568703,20.9998955 L1.25318545,20.9998955 L1.25318544,20.9998955 C1.18664493,21.0014992 1.12096247,20.9846243 1.06343537,20.9511456 C-0.0885654595,20.3113994 -0.6045651,18.8181557 1.08068537,17.4404152 C2.19818691,16.5216702 2.31818626,15.0449236 2.28443624,13.7159357 C2.28443624,13.5029367 2.45693644,13.3221876 2.68043653,13.3221876 L16.6274363,13.3221876 C16.8164365,13.3221876 16.9709373,13.4369371 17.0054366,13.6176855 C17.4006876,15.2579277 17.538687,16.5539216 17.8649372,18.8181711 C18.0899374,20.4749125 16.5756863,20.9999115 16.5756863,20.9999115 L16.5756992,20.9998998 Z M1.45869849,11.9774434 C0.926197374,11.9774434 0.6854472,11.5994443 0.908197361,11.1561964 L2.78319798,7.3507042 C3.00669741,6.89170638 3.62544786,6.52945809 4.14219897,6.52945809 L7.15194967,6.52945809 C7.25694982,6.53095809 7.3581999,6.4919582 7.43319988,6.4214586 L7.43319987,6.42145861 C7.50707024,6.35183528 7.54841336,6.25446216 7.54720003,6.15296061 L7.54720003,1.29599386 C7.56370005,0.573747284 8.16595047,0 8.90470028,0 L10.0237004,0 C10.7624502,0 11.3812006,0.574496548 11.3812006,1.29599386 L11.3812006,6.11846371 C11.3812006,6.3322127 11.5537008,6.49646192 11.7779502,6.49646192 L14.6842096,6.49646192 C15.2167107,6.49646192 15.8182104,6.87371086 16.0424613,7.31695877 L17.9159634,11.1231981 C18.1409635,11.5829452 17.8994634,11.9429435 17.366963,11.9429435 L1.45945149,11.9759434 L1.45870147,11.9774434 L1.45869849,11.9774434 Z" id="形状"></path>
                </g>
            </g>
        </g>
    </g>
</svg>