<?xml version="1.0" encoding="UTF-8"?>
<svg width="44px" height="44px" viewBox="0 0 44 44" version="1.1" xmlns="http://www.w3.org/2000/svg" xmlns:xlink="http://www.w3.org/1999/xlink">
    <!-- Generator: Sketch 64 (93537) - https://sketch.com -->
    <title>不文明遛狗行为</title>
    <desc>Created with Sketch.</desc>
    <g id="创文驾驶舱&amp;移动端" stroke="none" stroke-width="1" fill="none" fill-rule="evenodd">
        <g id="督办事件" transform="translate(-570.000000, -765.000000)">
            <g id="编组-8" transform="translate(570.000000, 759.000000)">
                <g id="遛狗服务" transform="translate(0.000000, 6.000000)" fill-rule="nonzero">
                    <path d="M22.0000256,44.0000572 L22.0000246,44.0000572 C9.84973706,44.0000572 -9.61650336e-07,34.1503132 -9.61650336e-07,22.0000256 C-9.61650336e-07,9.84973802 9.84973706,-2.13162821e-14 22.0000246,-2.13162821e-14 C34.1503122,-2.13162821e-14 44.0000502,9.84973802 44.0000502,22.0000256 L44.0000502,22.0001176 C43.9861432,34.1446473 34.1444684,43.9862642 21.9999386,44.0000572 L22.0000256,44.0000572 Z M22.0000256,2.09522361 L22.0000247,2.09522361 C11.0069299,2.09522361 2.09524376,11.0069308 2.09524376,22.0000256 C2.09524376,32.9931204 11.0069299,41.9048066 22.0000247,41.9048066 C32.9931196,41.9048066 41.9048063,32.9931204 41.9048063,22.0000256 L41.9048063,22.0006061 C41.8928093,11.0125816 32.9886085,2.1078994 22.000584,2.09522361 L22.0000256,2.09522361 Z" id="形状" fill="#FFDFAF"></path>
                    <path d="M23.3542303,13.576465 L24.4940422,14.7162769 L28.2955048,14.7162769 L29.4381096,15.8539919 L32.479003,15.8539919 L32.479003,18.280281 L32.479003,18.280281 C32.479003,19.4594351 31.5231105,20.415332 30.3439521,20.415332 C30.3439521,20.415332 30.3439521,20.415332 30.3439521,20.415332 L28.6782365,20.415332 L28.6782365,30.019933 L28.6782366,30.0199692 C28.6816889,31.5273705 27.4624988,32.7521618 25.9550932,32.7556194 C25.9520638,32.7556194 25.9490345,32.7556194 25.9460051,32.7556194 L24.8746383,32.7556194 L24.8746383,27.8108543 L16.168257,27.8108543 L16.168257,29.6015876 L16.168257,29.6015877 C16.168257,31.3413128 14.758137,32.7517465 13.018412,32.7521289 L11.9875518,32.7521289 L11.9875518,23.4206376 L23.3521549,23.4206376 L23.3542303,13.576465 Z" id="路径" fill="#FFDFAF"></path>
                    <path d="M27.0376877,34.5714724 L25.7246686,34.5714724 L25.7246686,34.5714724 C25.3389454,34.5714724 25.0262537,34.25876 25.0262537,33.8730355 C25.0262537,33.8730355 25.0262537,33.8730355 25.0262537,33.8730354 L25.0262537,28.5183065 L18.042105,28.5183065 L18.042105,30.0143083 L18.0421052,30.0141482 C18.0394996,32.5296019 16.0012676,34.5682824 13.4858225,34.5714724 L12.2222304,34.5714724 L12.2222304,34.5714724 C11.8365072,34.5714724 11.5238155,34.2587716 11.5238155,33.8730472 C11.5238155,33.8730472 11.5238155,33.8730471 11.5238155,33.8730471 L11.5238155,21.3016223 L11.5238155,21.3016224 C11.5238155,20.9158992 11.8365059,20.6032075 12.2222304,20.6032075 C12.2222304,20.6032075 12.2222304,20.6032075 12.2222304,20.6032075 L23.1642783,20.6032075 L23.1642783,11.5238142 L23.1642783,11.5239632 C23.1642784,11.13824 23.4769687,10.8255483 23.8626932,10.8255483 C24.0478359,10.8255483 24.2254027,10.899061 24.356366,11.029929 L25.5485569,12.2221198 L29.9150463,12.2221198 L29.9150463,12.2221198 C30.100504,12.221974 30.2784047,12.2955969 30.4095227,12.4267548 L31.6032175,13.6190531 L35.0387148,13.6190531 L35.0387148,13.6190531 C35.424438,13.6190531 35.7371298,13.9317435 35.7371298,14.317468 C35.7371298,14.317468 35.7371298,14.317468 35.7371298,14.317468 L35.7371298,17.289216 L35.7371298,17.289162 C35.7352348,19.1186188 34.2526694,20.6012315 32.4232126,20.6031866 L31.0794107,20.6031866 L31.0794107,30.5297528 L31.0794107,30.5297068 C31.0767423,32.7607715 29.2688,34.5687525 27.0377396,34.5714724 L27.0376877,34.5714724 Z M26.4230835,33.1746249 L27.0376877,33.1746249 L27.0376878,33.1746249 C28.4977848,33.1730851 29.6810381,31.989829 29.6825807,30.529732 L29.6825807,19.9047509 L29.6825807,19.9047508 C29.6825808,19.5190276 29.9952711,19.2063359 30.3809956,19.2063359 L32.4217601,19.2063359 L32.42176,19.2063359 C33.4800901,19.2051812 34.3377517,18.3475228 34.3389032,17.2891927 L34.3389032,15.0158553 L31.311979,15.0158553 L31.311979,15.0158553 C31.1267633,15.0158157 30.9491483,14.9422072 30.8181987,14.8112202 L29.6260079,13.6190294 L25.2595184,13.6190294 L25.2595184,13.6190294 C25.0740608,13.6191752 24.8961601,13.5455523 24.765042,13.4143943 L24.5611052,13.2097593 L24.5611052,21.3015578 L24.5611052,21.3015578 C24.5611052,21.687281 24.2484148,21.9999726 23.8626904,21.9999726 C23.8626904,21.9999726 23.8626903,21.9999726 23.8626903,21.9999726 L12.9206424,21.9999726 L12.9206424,33.1746249 L13.4856607,33.1746249 L13.4856606,33.1746249 C15.2301467,33.1726425 16.6437428,31.7587328 16.6452854,30.0142468 L16.6452854,27.8198302 L16.6452854,27.8198303 C16.6452853,27.4341071 16.9579758,27.1214154 17.3437003,27.1214154 C17.3437003,27.1214154 17.3437003,27.1214154 17.3437003,27.1214154 L25.7246788,27.1214154 L25.7246788,27.1214154 C26.110402,27.1214154 26.4230937,27.4341058 26.4230937,27.8198303 L26.4230835,33.1746249 Z" id="形状" fill="#F7931E"></path>
                    <path d="M30.3816916,23.1691637 L30.3460725,23.1691637 C30.1498186,23.1593859 25.5214497,22.9121475 23.5505138,21.9273825 C22.0209878,21.1591262 13.4290841,12.3695745 11.7221915,10.6130959 L11.7221915,10.6130959 C11.4561347,10.3338181 11.4668528,9.89173573 11.7461309,9.62568151 C12.0214294,9.36341585 12.4559454,9.36956168 12.7237184,9.63950874 C16.6117846,13.636531 23.1587344,20.1673804 24.1776965,20.6744552 C25.5982709,21.3854384 29.1650852,21.7074079 30.4194304,21.7716635 L30.4194304,21.7716635 C30.8051536,21.7813066 31.1100249,22.1018143 31.1003827,22.4875366 C31.0907396,22.8732598 30.770232,23.1781311 30.3845096,23.1684889 L30.3816916,23.1691637 Z" id="路径" fill="#F7931E"></path>
                    <path d="M11.4483922,22.105471 L11.4483921,22.105471 C10.9087684,22.1119045 10.3771069,21.9750117 9.9076899,21.7087719 L9.90768976,21.7087718 C9.00886411,21.1245422 8.41286107,20.1742056 8.27829138,19.1106719 L8.27829137,19.1106718 C8.20353382,18.7322624 8.44969262,18.3648967 8.82810294,18.2901396 C9.20504545,18.2156721 9.57134717,18.4596657 9.6478832,18.8361957 L9.64788324,18.8361962 C9.71478523,19.5034587 10.0650381,20.1098473 10.609598,20.5012157 L10.6095978,20.5012156 C11.0407468,20.7186222 11.5372083,20.7683926 12.0029342,20.6408986 L12.0029342,20.6408986 C12.3693713,20.5197815 12.7646121,20.7186528 12.8857282,21.0850885 C13.0068452,21.4515256 12.807974,21.8467664 12.4415383,21.9678825 L12.4415382,21.9678825 C12.1190402,22.0622536 11.7844035,22.1086135 11.448396,22.1054699 L11.4483922,22.105471 Z" id="路径" fill="#F7931E"></path>
                </g>
                <line x1="35.5" y1="41.5" x2="10.5" y2="12.5" id="直线" stroke="#FFDFAF" stroke-width="3" stroke-linecap="square"></line>
            </g>
        </g>
    </g>
</svg>