<?xml version="1.0" encoding="UTF-8"?>
<svg width="44px" height="44px" viewBox="0 0 44 44" version="1.1" xmlns="http://www.w3.org/2000/svg" xmlns:xlink="http://www.w3.org/1999/xlink">
    <!-- Generator: Sketch 64 (93537) - https://sketch.com -->
    <title>其他不文明行为</title>
    <desc>Created with Sketch.</desc>
    <g id="创文驾驶舱&amp;移动端" stroke="none" stroke-width="1" fill="none" fill-rule="evenodd">
        <g id="督办事件" transform="translate(-570.000000, -937.000000)">
            <g id="编组-8备份-6" transform="translate(570.000000, 931.000000)">
                <g id="遛狗服务" transform="translate(0.000000, 6.000000)">
                    <path d="M22.0000256,44.0000572 L22.0000246,44.0000572 C9.84973706,44.0000572 -9.61650358e-07,34.1503132 -9.61650358e-07,22.0000256 C-9.61650358e-07,9.84973802 9.84973706,0 22.0000246,0 C34.1503122,0 44.0000502,9.84973802 44.0000502,22.0000256 L44.0000502,22.0001176 C43.9861432,34.1446473 34.1444684,43.9862642 21.9999386,44.0000572 L22.0000256,44.0000572 Z M22.0000256,2.09522361 L22.0000247,2.09522361 C11.0069299,2.09522361 2.09524376,11.0069308 2.09524376,22.0000256 C2.09524376,32.9931204 11.0069299,41.9048066 22.0000247,41.9048066 C32.9931196,41.9048066 41.9048063,32.9931204 41.9048063,22.0000256 L41.9048063,22.0006061 C41.8928093,11.0125816 32.9886085,2.1078994 22.000584,2.09522361 L22.0000256,2.09522361 Z" id="形状" fill="#FFDFAF" fill-rule="nonzero"></path>
                    <g id="打架" transform="translate(9.000000, 10.000000)" fill-rule="nonzero">
                        <path d="M0,7.46384855 C0.325684116,6.61626718 0.791091011,5.86543145 1.46681256,5.26461247 C2.5589905,4.29540993 3.8368859,3.91270402 5.26852672,4.01648512 C5.47859863,4.0308083 5.6958038,4.03784424 5.90563071,4.02729034 C6.82660156,3.97703363 7.46026198,4.41351397 7.70526289,5.31461788 C8.06218745,6.62355698 8.90936448,7.42464896 10.1520881,7.79278339 C10.7613952,7.97521561 11.3984992,8.0717082 12.0321574,8.15764691 C12.6938586,8.24710404 13.0261859,8.54387055 12.9983891,9.11604484 C12.9669029,9.74927998 12.4732087,10.2568734 11.8781704,10.2103863 C10.3587154,10.0887649 8.9268239,9.68470139 7.67009341,8.7584682 C7.58276853,8.69413942 7.50552889,8.61900556 7.42164668,8.55115906 C7.34809695,8.48657908 7.27110344,8.42576826 7.16262313,8.33656256 C7.04012222,8.87280295 6.91762222,9.38064776 6.80545245,9.88849257 C6.57791547,10.8898598 6.36095531,11.8947425 6.12653121,12.8961167 C6.08077791,13.0926208 6.11915162,13.1928839 6.2979833,13.293145 C7.28512472,13.8580324 8.13229948,14.5804726 8.69585352,15.6067269 C9.31204775,16.7332331 9.43799177,17.9275749 9.19299086,19.1792408 C8.96545388,20.3273562 8.48233692,21.3679237 7.90820607,22.3655195 C7.65975934,22.7984816 7.28168116,22.9557853 6.8475147,22.8484864 C6.3678413,22.7341522 5.92334642,22.2549543 5.9127696,21.7719851 C5.90588201,21.5146695 5.96885427,21.2392624 6.06675686,21.0030555 C6.32947009,20.3559986 6.6792614,19.7408573 6.90360094,19.0792265 C7.35867489,17.7273181 6.91048854,16.6189149 5.84266344,15.7748444 C5.37037168,15.3994254 4.8169022,15.127536 4.25703786,14.784284 C4.13798074,15.2277994 4.03983247,15.5853783 3.94537412,15.9464727 C3.41330665,18.0100167 2.88123918,20.0733115 2.34548203,22.1368463 C2.17058615,22.8127994 1.62449741,23.1274066 0.966239793,22.9522629 C0.307982179,22.7768666 -0.0280348786,22.197658 0.147108032,21.5325096 C0.878669466,18.7181183 1.63483035,15.9107856 2.3385949,13.0893589 C2.86008556,11.0042057 3.31171369,8.89793222 3.79483065,6.80600189 C3.84033805,6.61276459 3.88584544,6.42329598 3.93848632,6.19437598 C3.26620607,6.37329024 2.76562517,6.75222561 2.38754473,7.28143054 C2.16689556,7.58900236 1.98166741,7.92873891 1.8239907,8.27902865 C1.52979089,8.92658846 0.836603148,8.95146399 0.381529195,8.48658923 C0.213520892,8.31496232 0.125949211,8.06820085 0.000251323517,7.85737467 L0.000251323517,7.46386414 L0,7.46384855 Z" id="路径" fill="#F7931E"></path>
                        <path d="M26,14.1683419 C25.8569837,14.6673998 25.6483746,15.1366259 25.2273007,15.4532813 C24.9747078,15.6432744 24.6891899,15.7848527 24.4147319,15.9450122 C23.415418,16.5223181 22.5369992,17.25612 21.7131036,18.0642445 C21.2261796,18.5444611 20.7431138,19.0286031 20.2489857,19.4980886 C19.6632866,20.0565532 18.7810095,19.9487328 18.3270106,19.2745983 C18.0268294,18.8312811 18.0780185,18.3471391 18.4880325,17.9263292 C18.9968215,17.4086894 19.5205288,16.9020426 20.0329187,16.3880663 L20.0329187,16.3880664 C20.1547571,16.2664164 20.2616815,16.130217 20.3513616,15.9824342 C19.9084227,16.1645763 19.4582819,16.3286621 19.0225447,16.53331 C17.2507888,17.3751941 15.8231921,18.6376263 14.7102013,20.272719 C14.6224881,20.4030447 14.5309165,20.5297059 14.4285417,20.6487787 C14.1026396,21.0360933 13.6339773,21.10675 13.2020984,20.8424355 C12.5394892,20.4365415 12.3380831,19.5873304 12.769962,18.9357018 C14.2783224,16.6526465 16.2808085,14.9840489 18.8139392,14.012099 C19.739944,13.6582822 20.7065902,13.4235406 21.6912433,13.1218011 C21.511701,12.7161689 21.3252144,12.250347 21.098085,11.7997004 C20.4941241,10.5932707 19.6998172,9.52789748 18.7444883,8.58185647 C18.4625712,8.30262416 18.2575643,7.93755498 18.0085722,7.6248249 C17.9499254,7.55416628 17.8547526,7.49057358 17.7631811,7.47565693 C15.9806202,7.13309497 14.1942011,6.80178303 12.4077867,6.4628846 C12.2135828,6.42546168 12.0196354,6.39562813 11.8292917,6.34355017 C11.2106699,6.16847403 10.8886237,5.59116884 11.0349847,4.93953792 C11.1849462,4.28005865 11.7086539,3.90792428 12.3455399,4.01966765 C12.9860267,4.13481485 13.6265135,4.26173865 14.2672576,4.38447498 C15.6987079,4.6566421 17.1301582,4.9282831 18.5649614,5.18893595 C18.6637353,5.20751653 18.7882315,5.17794462 18.8726017,5.1219411 C19.6705095,4.61921966 20.4648165,4.67888579 21.1603484,5.33051455 C23.4884792,7.50941536 25.0920138,10.1460136 25.9156354,13.2597174 C25.9449589,13.3677987 25.9704241,13.4756184 25.9961464,13.5873634 C25.9997475,13.7810202 25.9997475,13.974678 25.9997475,14.1683328 L26,14.1683419 Z" id="路径" fill="#FFDFAF"></path>
                        <path d="M7.02192867,3.99990257 C5.91416229,4.01071168 5.01474606,3.12076169 5.00010109,2.00356298 C4.98905425,0.926769795 5.88487469,0.0185467672 6.96720692,0.000275333507 C8.07497331,-0.0179972106 8.98903451,0.875555916 8.99982368,1.98529155 C9.01446715,3.0731506 8.11505008,3.98883671 7.02192631,3.99990257 L7.02192867,3.99990257 Z" id="路径" fill="#F7931E"></path>
                        <path d="M18.9613227,4.99937988 C17.8444492,4.97605298 16.9734506,4.06987071 17.0006186,2.96060761 C17.0280602,1.8787889 17.9303414,0.992365956 18.9926069,1.00004958 C20.1015227,1.01185026 21.0194463,1.92571694 20.9996868,3.00753565 C20.9843195,4.14012673 20.0781963,5.02682175 18.9613227,4.99937988 Z" id="路径" fill="#FFDFAF"></path>
                        <path d="M14.6142412,11.9997647 L14.3088892,11.9997647 C14.3121903,11.318293 14.5706198,10.776779 15.1176611,10.3857917 C15.2518277,10.2888078 15.3053528,10.1885361 15.3256311,10.0281481 C15.3525115,9.82102968 15.4230137,9.62048688 15.4765389,9.41008048 C15.3121907,9.29971127 15.1275633,9.19615218 14.9632163,9.06582339 C14.8358878,8.96555188 14.7080875,8.8486073 14.6276824,8.71146708 C14.4866779,8.46419262 14.3492093,8.24016683 14,8.34043899 L14,8.00299159 C14.1813252,8.00299159 14.3525123,7.99289397 14.5201603,8.00980161 C14.5739211,8.01308921 14.6477247,8.06991769 14.667767,8.12017082 C14.9094563,8.71146741 15.3456725,9.06230138 16,9.20272896 C15.949776,9.2896154 15.9061541,9.35654139 15.8691345,9.43004211 C15.8120723,9.54041133 15.741806,9.65078054 15.7149254,9.77101184 C15.6644656,9.99809003 15.698184,10.2622712 15.587361,10.4527185 C15.4833761,10.6330665 15.2282469,10.7166647 15.0638998,10.8704767 C14.8290503,11.0909802 14.7047857,11.3784101 14.6512617,11.6958983 C14.6441879,11.7893599 14.6309834,11.8896314 14.6142421,12 L14.6142412,11.9997647 Z" id="路径" fill="#F7931E"></path>
                    </g>
                    <line x1="35" y1="37" x2="10" y2="8" id="直线备份" stroke="#FFDFAF" stroke-width="3" stroke-linecap="square"></line>
                </g>
            </g>
        </g>
    </g>
</svg>