<?xml version="1.0" encoding="UTF-8"?>
<svg width="44px" height="44px" viewBox="0 0 44 44" version="1.1" xmlns="http://www.w3.org/2000/svg" xmlns:xlink="http://www.w3.org/1999/xlink">
    <!-- Generator: Sketch 64 (93537) - https://sketch.com -->
    <title>禁止张贴小广告</title>
    <desc>Created with Sketch.</desc>
    <g id="创文驾驶舱&amp;移动端" stroke="none" stroke-width="1" fill="none" fill-rule="evenodd">
        <g id="督办事件" transform="translate(-570.000000, -851.000000)">
            <g id="编组-8备份-3" transform="translate(570.000000, 845.000000)">
                <g id="遛狗服务" transform="translate(0.000000, 6.000000)" fill="#FFDFAF" fill-rule="nonzero">
                    <path d="M22.0000256,44.0000572 L22.0000246,44.0000572 C9.84973706,44.0000572 -9.61650358e-07,34.1503132 -9.61650358e-07,22.0000256 C-9.61650358e-07,9.84973802 9.84973706,0 22.0000246,0 C34.1503122,0 44.0000502,9.84973802 44.0000502,22.0000256 L44.0000502,22.0001176 C43.9861432,34.1446473 34.1444684,43.9862642 21.9999386,44.0000572 L22.0000256,44.0000572 Z M22.0000256,2.09522361 L22.0000247,2.09522361 C11.0069299,2.09522361 2.09524376,11.0069308 2.09524376,22.0000256 C2.09524376,32.9931204 11.0069299,41.9048066 22.0000247,41.9048066 C32.9931196,41.9048066 41.9048063,32.9931204 41.9048063,22.0000256 L41.9048063,22.0006061 C41.8928093,11.0125816 32.9886085,2.1078994 22.000584,2.09522361 L22.0000256,2.09522361 Z" id="形状"></path>
                </g>
                <g id="广告" transform="translate(9.000000, 13.000000)">
                    <path d="M20.2275214,17.0210719 L20.2275214,17.0210719 C20.5986322,16.7721554 21.1011688,16.8713557 21.3499681,17.2426414 C21.5987674,17.6139271 21.4996138,18.1167005 21.128503,18.365617 C21.1219793,18.3699927 21.1153924,18.374273 21.1087441,18.3784567 L16.4112901,21.4268524 L13.6219571,23.2370997 L13.6219571,23.2370998 C13.2492708,23.4812288 12.7493373,23.3768681 12.5053233,23.0040057 C12.3830722,22.8172009 12.3436489,22.5880682 12.3964323,22.3711208 L12.3964323,22.3711209 C12.4434059,22.1679942 12.5672496,21.9909919 12.7419379,21.8773084 L20.2275022,17.0198769 L20.2275214,17.0210719 Z M18.2760724,13.9256954 L10.7905081,18.7831268 L10.7905081,18.7831268 C10.4176831,19.0270441 9.91780839,18.9224039 9.67400599,18.5494044 C9.67297277,18.5478236 9.67194509,18.5462393 9.67092299,18.5446513 L9.67092295,18.5446512 C9.42751325,18.1698084 9.53391616,17.6685195 9.90858331,17.4249951 C9.90881766,17.4248427 9.90905209,17.4246905 9.9092866,17.4245385 L17.3948509,12.567107 L17.3948508,12.567107 C17.7698368,12.3236485 18.2710942,12.4304189 18.5144358,12.8055828 C18.7577796,13.1807455 18.6510595,13.6822392 18.2760723,13.9256954 L18.2760724,13.9256954 Z M3.92852925,11.2121417 L3.92852925,19.8201417 L1.68695152,10.2787106 L1.6869515,10.2787105 C1.36495109,8.90301663 2.21702847,7.52622172 3.59145121,7.20140174 L18.5228634,3.69051344 L18.5228632,3.6905135 C19.183202,3.53331988 19.8789539,3.64694806 20.4550514,4.0060714 C21.0353087,4.36739863 21.4422135,4.93106846 21.598713,5.59590841 L22.0682162,7.5964532 L7.54250245,7.5964532 L7.5425024,7.5964532 C5.54722433,7.59578793 3.92919202,9.21350244 3.92853361,11.2097255 C3.92853334,11.2105286 3.92853334,11.2113317 3.92853361,11.2121348 L3.92852925,11.2121417 Z M23.7981621,7.88310739 L23.173361,5.22615664 L23.1733611,5.22615691 C22.92364,4.14571112 22.2521271,3.21018159 21.3085894,2.62820873 L21.3085891,2.62820856 C20.368273,2.04171876 19.23247,1.85608885 18.1544966,2.11271711 L3.22066239,5.62480522 L3.22066214,5.62480528 C0.976450773,6.15522617 -0.414775543,8.40338414 0.111106415,10.6496459 L2.77884511,22.0049356 L2.77884511,22.0049356 C3.02944089,23.0846945 3.70134656,24.0192994 4.64482075,24.6004607 L4.72668282,24.6474331 L4.72668289,24.6474332 C5.41112894,25.5028976 6.44723914,26.0005894 7.54249343,26 L22.3872306,26 L22.3872304,26 C24.3825085,26 26,24.3817452 26,22.3855268 L26,11.2120911 L26,11.2118131 C26,9.7603216 25.1324076,8.44953758 23.79669,7.88296703 L23.7981621,7.88310739 Z" id="形状" fill="#F7931E" fill-rule="nonzero"></path>
                    <line x1="26.5" y1="29" x2="1.5" y2="0" id="直线备份" stroke="#FFDFAF" stroke-width="3" stroke-linecap="square"></line>
                </g>
            </g>
        </g>
    </g>
</svg>