<?xml version="1.0" encoding="UTF-8"?>
<svg width="44px" height="44px" viewBox="0 0 44 44" version="1.1" xmlns="http://www.w3.org/2000/svg" xmlns:xlink="http://www.w3.org/1999/xlink">
    <!-- Generator: Sketch 64 (93537) - https://sketch.com -->
    <title>口头宣传</title>
    <desc>Created with Sketch.</desc>
    <g id="创文驾驶舱&amp;移动端" stroke="none" stroke-width="1" fill="none" fill-rule="evenodd">
        <g id="督办事件" transform="translate(-848.000000, -937.000000)" fill-rule="nonzero">
            <g id="编组-8备份-7" transform="translate(848.000000, 931.000000)">
                <g id="遛狗服务" transform="translate(0.000000, 6.000000)" fill="#FFDFAF">
                    <path d="M22.0000256,44.0000572 L22.0000246,44.0000572 C9.84973706,44.0000572 -9.61650336e-07,34.1503132 -9.61650336e-07,22.0000256 C-9.61650336e-07,9.84973802 9.84973706,-2.13162821e-14 22.0000246,-2.13162821e-14 C34.1503122,-2.13162821e-14 44.0000502,9.84973802 44.0000502,22.0000256 L44.0000502,22.0001176 C43.9861432,34.1446473 34.1444684,43.9862642 21.9999386,44.0000572 L22.0000256,44.0000572 Z M22.0000256,2.09522361 L22.0000247,2.09522361 C11.0069299,2.09522361 2.09524376,11.0069308 2.09524376,22.0000256 C2.09524376,32.9931204 11.0069299,41.9048066 22.0000247,41.9048066 C32.9931196,41.9048066 41.9048063,32.9931204 41.9048063,22.0000256 L41.9048063,22.0006061 C41.8928093,11.0125816 32.9886085,2.1078994 22.000584,2.09522361 L22.0000256,2.09522361 Z" id="形状"></path>
                </g>
                <g id="沟通" transform="translate(10.000000, 17.000000)">
                    <path d="M10.6561212,17.9381392 L7.01060566,20.2026866 L7.01060566,20.2026866 C6.87499497,20.2907757 6.69529876,20.2496523 6.60924599,20.1108349 C6.5790018,20.0620469 6.56328221,20.0053034 6.56400445,19.9475263 L6.56400445,17.9594018 L6.56400445,17.9594018 C6.56400445,17.5601258 6.24780418,17.2364485 5.85775155,17.2364485 L2.39918555,17.2364485 L2.39918552,17.2364485 C2.03207559,17.2364485 1.73447533,16.9318111 1.73447533,16.5560203 L1.73447533,6.46654994 L1.73447533,6.46655004 C1.73447527,6.09075927 2.03207559,5.78612184 2.39918552,5.78612184 L2.8146297,5.78612184 L2.81462966,5.78612184 C3.29646038,5.78612186 3.68706072,5.38628521 3.68706072,4.89306092 C3.68706074,4.39983663 3.29646038,4 2.81462966,4 L2.39918548,4 L2.39918542,4 C1.07247434,4.00585393 0,5.10845207 0,6.46655004 L0,16.5560204 L0,16.55602 C0,17.9182569 1.07880093,19.0225701 2.40957232,19.0225701 L4.82952909,19.0225701 L4.82952909,22.2120734 L4.8295291,22.2120722 C4.82889025,22.6465797 5.17247191,22.9993463 5.59694224,23 C5.74046592,23.0002202 5.8811834,22.9592988 6.00315578,22.8818694 L11.5804829,19.4159508 L11.5804829,19.4159508 C11.9934807,19.157596 12.1236808,18.6054407 11.8712941,18.182677 C11.6189074,17.7599133 11.0795069,17.6266345 10.6665091,17.8849892 L10.6561212,17.9381392 Z" id="路径" fill="#FFDFAF"></path>
                    <path d="M20.4433117,2.29130779e-05 L6.54606254,2.29130779e-05 L6.54606243,2.29130779e-05 C5.13990994,2.29130779e-05 4,1.14611279 4,2.55986781 C4,2.55986781 4,2.55986781 4,2.55986781 L4,13.2258263 L4,13.2258267 C4,14.6395817 5.13991243,15.7856547 6.54606243,15.7856547 L9.8453267,15.7856547 L16.603009,19.8813796 L16.603009,19.8813796 C16.971472,20.1111151 17.4554054,19.9970393 17.683907,19.6265842 C17.7611686,19.5013241 17.8020013,19.3568148 17.801781,19.2094247 L17.801781,16.2123011 L17.801781,15.7643312 L20.4539376,15.7643312 L20.4539375,15.7643312 C21.86009,15.7643312 23,14.6182581 23,13.2045031 L23,2.53854463 L23,2.53855047 C22.9883318,1.12896517 21.8453756,-0.00587859658 20.4433456,2.29130779e-05 L20.4433117,2.29130779e-05 Z M8.92237918,8.44747232 L8.92237924,8.44747232 C8.33648403,8.44747232 7.86151906,7.96994188 7.86151906,7.38087645 C7.86151906,6.79181352 8.33648154,6.3142806 8.92237924,6.3142806 C9.50827445,6.3142806 9.98323941,6.79181102 9.98323941,7.38087645 C9.98323941,7.38087646 9.98323941,7.38087646 9.98323941,7.38087647 L9.98323941,7.38087647 C9.98323941,7.9699394 9.50827694,8.44747232 8.92237924,8.44747232 L8.92237918,8.44747232 Z M13.4840827,8.44747313 L13.4840826,8.44747313 C12.8981874,8.44747313 12.4232224,7.96994188 12.4232224,7.38087645 C12.4232224,6.79181352 12.8981849,6.3142806 13.4840826,6.3142806 C14.0699778,6.3142806 14.5449428,6.79181102 14.5449428,7.38087645 L14.5449428,7.38092978 C14.5449428,7.96585298 14.0763877,8.44165102 13.4946398,8.44747313 L13.4840827,8.44747313 Z M18.0457861,8.44747313 L18.0457861,8.44747313 C17.4598909,8.44747313 16.9849259,7.96994188 16.9849259,7.38087645 C16.9849259,6.79181352 17.4598884,6.3142806 18.0457861,6.3142806 C18.6316813,6.3142806 19.1066463,6.79181102 19.1066463,7.38087645 L19.1066463,7.38092978 C19.1066463,7.96585298 18.6380912,8.44165102 18.0563433,8.44747313 L18.0457861,8.44747313 Z" id="形状" fill="#F7931E"></path>
                </g>
            </g>
        </g>
    </g>
</svg>