<?xml version="1.0" encoding="UTF-8"?>
<svg width="44px" height="44px" viewBox="0 0 44 44" version="1.1" xmlns="http://www.w3.org/2000/svg" xmlns:xlink="http://www.w3.org/1999/xlink">
    <!-- Generator: Sketch 64 (93537) - https://sketch.com -->
    <title>吸烟</title>
    <desc>Created with Sketch.</desc>
    <g id="创文驾驶舱&amp;移动端" stroke="none" stroke-width="1" fill="none" fill-rule="evenodd">
        <g id="督办事件" transform="translate(-848.000000, -851.000000)">
            <g id="编组-8备份-4" transform="translate(848.000000, 845.000000)">
                <g id="遛狗服务" transform="translate(0.000000, 6.000000)" fill-rule="nonzero">
                    <path d="M22.0000256,44.0000572 L22.0000246,44.0000572 C9.84973706,44.0000572 -9.61650358e-07,34.1503132 -9.61650358e-07,22.0000256 C-9.61650358e-07,9.84973802 9.84973706,0 22.0000246,0 C34.1503122,0 44.0000502,9.84973802 44.0000502,22.0000256 L44.0000502,22.0001176 C43.9861432,34.1446473 34.1444684,43.9862642 21.9999386,44.0000572 L22.0000256,44.0000572 Z M22.0000256,2.09522361 L22.0000247,2.09522361 C11.0069299,2.09522361 2.09524376,11.0069308 2.09524376,22.0000256 C2.09524376,32.9931204 11.0069299,41.9048066 22.0000247,41.9048066 C32.9931196,41.9048066 41.9048063,32.9931204 41.9048063,22.0000256 L41.9048063,22.0006061 C41.8928093,11.0125816 32.9886085,2.1078994 22.000584,2.09522361 L22.0000256,2.09522361 Z" id="形状" fill="#FFDFAF"></path>
                    <g id="吸烟_画板-1" transform="translate(7.000000, 6.000000)">
                        <path d="M22.7660668,8.08235294 C23.5989717,7.23529412 24.1195373,6.03529412 24.1195373,4.72941176 C24.1195373,2.11764706 22.0719794,0 19.6079692,0 L19.6079692,2.11764706 C20.996144,2.11764706 22.1066838,3.28235294 22.1066838,4.72941176 C22.1066838,6.17647059 20.996144,7.34117647 19.6079692,7.34117647 L19.6079692,9.45882353 C22.6272494,9.45882353 25.0218509,12.0352941 25.0218509,15.2117647 L25.0218509,18.3529412 L27,18.3529412 L27,15.2117647 C27,12.0352941 25.2647815,9.35294118 22.7660668,8.08235294 L22.7660668,8.08235294 Z M18.9485861,11.5764706 L16.9010283,11.5764706 C15.5128535,11.5764706 14.4023136,10.2 14.4023136,8.75294118 C14.4023136,7.30588235 15.5128535,6.28235294 16.9010283,6.28235294 L16.9010283,4.16470588 C14.4023136,4.16470588 12.3894602,6.28235294 12.3894602,8.89411765 C12.3894602,11.5058824 14.4023136,13.6235294 16.9010283,13.6235294 L18.9485861,13.6235294 C20.3714653,13.6235294 21.6208226,14.6823529 21.6208226,16.5176471 L21.6208226,18.3529412 L23.6336761,18.3529412 L23.6336761,16.0235294 C23.6336761,13.4823529 21.4820051,11.5764706 18.9485861,11.5764706 Z" id="形状" fill="#FFDFAF"></path>
                        <polygon id="路径" fill="#F7931E" points="0 24 20.2326478 24 20.2326478 19.7647059 3.85295908e-16 19.7647059"></polygon>
                        <polygon id="路径" fill="#F7931E" points="24.9871465 24 27 24 27 19.7647059 24.9871465 19.7647059"></polygon>
                        <polygon id="路径" fill="#F7931E" points="21.5861183 24 23.5989717 24 23.5989717 19.7647059 21.5861183 19.7647059"></polygon>
                        <path d="M21.9906103,7.92692308 C22.7793427,7.09615385 23.2723005,5.91923077 23.2723005,4.63846154 C23.2723005,2.07692308 21.3333333,0 19,0 L19,2.07692308 C20.314554,2.07692308 21.3661972,3.21923077 21.3661972,4.63846154 C21.3661972,6.05769231 20.314554,7.2 19,7.2 L19,9.27692308 C21.8591549,9.27692308 24.1267606,11.8038462 24.1267606,14.9192308 L24.1267606,18 L26,18 L26,14.9192308 C26,11.8038462 24.3568075,9.17307692 21.9906103,7.92692308 L21.9906103,7.92692308 Z" id="路径" fill="#F7931E"></path>
                        <path d="M18.4166667,11.3134328 L16.4135802,11.3134328 C15.0555556,11.3134328 13.9691358,9.95522388 13.9691358,8.52736318 C13.9691358,7.09950249 15.0555556,6.08955224 16.4135802,6.08955224 L16.4135802,4 C13.9691358,4 12,6.08955224 12,8.66666667 C12,11.2437811 13.9691358,13.3333333 16.4135802,13.3333333 L18.4166667,13.3333333 C19.808642,13.3333333 21.0308642,14.3781095 21.0308642,16.1890547 L21.0308642,18 L23,18 L23,15.7014925 C23,13.1940299 20.8950617,11.3134328 18.4166667,11.3134328 Z" id="路径" fill="#F7931E"></path>
                    </g>
                </g>
                <line x1="34" y1="42" x2="9" y2="13" id="直线备份" stroke="#FFDFAF" stroke-width="3" stroke-linecap="square"></line>
            </g>
        </g>
    </g>
</svg>