<?xml version="1.0" encoding="UTF-8"?>
<svg width="44px" height="44px" viewBox="0 0 44 44" version="1.1" xmlns="http://www.w3.org/2000/svg" xmlns:xlink="http://www.w3.org/1999/xlink">
    <!-- Generator: Sketch 64 (93537) - https://sketch.com -->
    <title>不文明交通</title>
    <desc>Created with Sketch.</desc>
    <g id="创文驾驶舱&amp;移动端" stroke="none" stroke-width="1" fill="none" fill-rule="evenodd">
        <g id="督办事件" transform="translate(-1126.000000, -765.000000)">
            <g id="编组-8备份-2" transform="translate(1126.000000, 759.000000)">
                <g id="遛狗服务" transform="translate(0.000000, 6.000000)" fill-rule="nonzero">
                    <path d="M22.0000256,44.0000572 L22.0000246,44.0000572 C9.84973706,44.0000572 -9.61650358e-07,34.1503132 -9.61650358e-07,22.0000256 C-9.61650358e-07,9.84973802 9.84973706,0 22.0000246,0 C34.1503122,0 44.0000502,9.84973802 44.0000502,22.0000256 L44.0000502,22.0001176 C43.9861432,34.1446473 34.1444684,43.9862642 21.9999386,44.0000572 L22.0000256,44.0000572 Z M22.0000256,2.09522361 L22.0000247,2.09522361 C11.0069299,2.09522361 2.09524376,11.0069308 2.09524376,22.0000256 C2.09524376,32.9931204 11.0069299,41.9048066 22.0000247,41.9048066 C32.9931196,41.9048066 41.9048063,32.9931204 41.9048063,22.0000256 L41.9048063,22.0006061 C41.8928093,11.0125816 32.9886085,2.1078994 22.000584,2.09522361 L22.0000256,2.09522361 Z" id="形状" fill="#FFDFAF"></path>
                    <path d="M20,22.9768171 C17,23.129273 13.8695566,22.5194507 11,21.4522582 C11.7826091,16.5736696 12.9565218,14.4392991 13.4782674,13.9819254 C14.1304407,12.9147354 15.8260846,12 20,12 C24.1739154,12 25.8695634,13.0671901 26.5217326,13.9819254 C27.043472,14.591749 28.2173847,16.5736696 29,21.4522582 C26.1304434,22.5194483 23,22.9768171 20,22.9768171 Z" id="路径" fill="#FFDFAF"></path>
                    <g id="交通" transform="translate(7.000000, 9.000000)" fill="#F7931E">
                        <path d="M28.0550125,8.94408773 L27.5900135,8.94408773 C27.4350135,8.49688335 27.4350135,8.19874631 27.2800135,7.75153958 C26.6600133,5.96271734 25.730013,4.17389511 24.6450187,2.68322163 C23.0950182,0.894399398 20.1500234,0 15.5,0 C10.6950021,0 7.7500195,0.894411117 6.35500078,2.68322163 C5.11500039,4.32297418 4.34000136,5.96271734 3.72000604,7.75153958 C3.565006,8.19874396 3.41000595,8.496881 3.41000595,8.94408773 L2.94500702,8.94408773 C0.620007506,8.94408773 0,10.4347729 0,11.4782467 C0,11.9254511 0.310000097,12.3726578 0.774999025,12.5217252 L2.47999834,12.8198622 C2.01499942,15.2049585 1.85999815,17.5900548 1.70499932,19.9751511 L1.70499932,22.9565215 C1.70499932,23.5527956 2.16999825,23.8509327 2.63499961,24 L4.64999903,24 C5.26999922,24 5.57999932,23.5527956 5.57999932,23.1055889 L5.57999932,21.9130407 L24.9549993,21.9130407 L24.9549993,22.9565192 C24.9549993,23.5527933 25.4199982,23.8509303 25.8849996,24 L27.899999,24 C28.5199992,24 28.8299993,23.5527933 28.8299993,23.1055865 L28.8299993,20.1242161 C28.8299993,17.7391198 28.5199992,15.3540235 28.0550003,12.9689272 L29.7599996,12.6707902 C30.6899999,12.2235858 31,11.9254487 31,11.3291747 C31,10.4347636 30.3799998,8.94407836 28.054993,8.94407836 L28.0550125,8.94408773 Z M5.26999922,17.7391362 C4.49500019,17.7391362 3.71999873,17.1428622 3.71999873,16.3975207 C3.71999873,15.6521793 4.33999893,14.9068355 5.11499795,14.9068355 C5.88999698,14.9068355 6.66499844,15.5031096 6.66499844,16.248451 C6.66499844,16.9937925 6.19999951,17.5900666 5.42499805,17.5900666 L5.269998,17.7391362 L5.26999922,17.7391362 Z M25.5750117,17.7391362 C24.8000127,17.7391362 24.0250112,17.1428622 24.0250112,16.3975207 C24.0250112,15.6521793 24.6450114,14.9068355 25.4200104,14.9068355 C26.1950095,14.9068355 26.9700109,15.5031096 26.9700109,16.248451 C27.125011,17.1428622 26.505012,17.7391362 25.5750117,17.7391362 Z M15.5000146,12.9689436 C11.9350074,13.1180121 8.21500624,12.5217392 4.80501735,11.4782584 C5.73501764,6.7080658 7.13001686,4.62111825 7.75002437,4.17390683 C8.5250234,3.13042836 10.5400131,2.23601725 15.5000146,2.23601725 C20.4600162,2.23601725 22.4750107,3.27949571 23.2500049,4.17390683 C23.8700051,4.77018091 25.2650043,6.7080658 26.1950119,11.4782584 C22.785023,12.5217369 19.0650218,12.9689436 15.5000146,12.9689436 Z" id="形状"></path>
                    </g>
                </g>
                <line x1="34" y1="43" x2="9" y2="14" id="直线备份" stroke="#FFDFAF" stroke-width="3" stroke-linecap="square"></line>
            </g>
        </g>
    </g>
</svg>